<svg version="1.1" id="Layer_1" xmlns="http://www.w3.org/2000/svg" xmlns:xlink="http://www.w3.org/1999/xlink" x="0px" y="0px"
	 width="100%" viewBox="0 0 146 146" enable-background="new 0 0 146 146" xml:space="preserve">
<path fill="#010101" opacity="1.000000" stroke="none" 
	d="
M86.000000,147.000000 
	C57.357456,147.000000 29.214914,147.000000 1.072371,147.000000 
	C1.048247,146.857605 1.002989,146.715195 1.002980,146.572800 
	C0.999938,98.114334 1.000000,49.655876 1.000000,1.000000 
	C25.246332,1.000000 49.493198,1.000000 73.740067,1.000000 
	C98.052559,1.000000 122.365044,1.000000 146.838776,1.000000 
	C146.838776,49.666237 146.838776,98.333069 146.838776,147.000000 
	C126.798615,147.000000 106.649307,147.000000 86.000000,147.000000 
M100.148888,124.493011 
	C100.148888,129.257309 100.148888,134.021606 100.148888,139.979782 
	C102.518341,138.736786 104.133957,138.160187 105.428246,137.165482 
	C112.819809,131.484818 119.944740,125.439095 127.517395,120.016090 
	C141.261520,110.173477 145.182724,100.231674 139.968277,86.706459 
	C132.740189,67.958237 124.818985,49.476833 117.126053,30.909569 
	C116.801170,30.125439 115.882782,29.263403 115.078033,29.049026 
	C91.886063,22.870970 68.654068,16.841997 45.488182,10.568671 
	C42.603462,9.787490 41.887600,10.331887 41.035725,13.060962 
	C37.636940,23.949312 33.877296,34.724537 30.300430,45.557880 
	C22.790695,68.302795 15.466891,91.110596 7.759424,113.788132 
	C3.499701,126.321419 10.507716,137.021576 21.193243,138.745300 
	C27.628347,139.783371 34.367573,138.936172 41.151886,138.936172 
	C41.151886,120.122238 41.086197,101.819824 41.234283,83.519150 
	C41.252983,81.208427 41.762466,78.390015 43.141285,76.703407 
	C46.503719,72.590393 50.499805,69.040054 52.817318,64.062256 
	C53.301628,63.022007 55.314865,62.109592 56.594452,62.146496 
	C59.171642,62.220818 60.075977,60.997581 61.258167,58.950085 
	C65.610863,51.411385 75.668114,51.542229 80.166855,58.985825 
	C80.792740,60.021400 81.592232,61.811916 82.296211,61.804554 
	C87.988472,61.745029 90.420929,65.081772 91.729103,69.979576 
	C91.940163,70.769814 92.736855,71.664528 93.491554,72.007133 
	C99.204620,74.600723 100.130844,79.583725 100.141335,85.023430 
	C100.166069,97.847229 100.149040,110.671104 100.148888,124.493011 
z"/>
<path fill="#FDFDFD" opacity="1.000000" stroke="none" 
	d="
M100.148895,123.993980 
	C100.149040,110.671104 100.166069,97.847229 100.141335,85.023430 
	C100.130844,79.583725 99.204620,74.600723 93.491554,72.007133 
	C92.736855,71.664528 91.940163,70.769814 91.729103,69.979576 
	C90.420929,65.081772 87.988472,61.745029 82.296211,61.804554 
	C81.592232,61.811916 80.792740,60.021400 80.166855,58.985825 
	C75.668114,51.542229 65.610863,51.411385 61.258167,58.950085 
	C60.075977,60.997581 59.171642,62.220818 56.594452,62.146496 
	C55.314865,62.109592 53.301628,63.022007 52.817318,64.062256 
	C50.499805,69.040054 46.503719,72.590393 43.141285,76.703407 
	C41.762466,78.390015 41.252983,81.208427 41.234283,83.519150 
	C41.086197,101.819824 41.151886,120.122238 41.151886,138.936172 
	C34.367573,138.936172 27.628347,139.783371 21.193243,138.745300 
	C10.507716,137.021576 3.499701,126.321419 7.759424,113.788132 
	C15.466891,91.110596 22.790695,68.302795 30.300430,45.557880 
	C33.877296,34.724537 37.636940,23.949312 41.035725,13.060962 
	C41.887600,10.331887 42.603462,9.787490 45.488182,10.568671 
	C68.654068,16.841997 91.886063,22.870970 115.078033,29.049026 
	C115.882782,29.263403 116.801170,30.125439 117.126053,30.909569 
	C124.818985,49.476833 132.740189,67.958237 139.968277,86.706459 
	C145.182724,100.231674 141.261520,110.173477 127.517395,120.016090 
	C119.944740,125.439095 112.819809,131.484818 105.428246,137.165482 
	C104.133957,138.160187 102.518341,138.736786 100.148888,139.979782 
	C100.148888,134.021606 100.148888,129.257309 100.148895,123.993980 
M72.421898,32.750313 
	C67.747383,29.718668 68.039154,35.924961 64.825638,36.286804 
	C66.894287,38.205482 68.550400,39.741528 70.171379,41.244991 
	C75.633560,36.365536 75.633560,36.365536 72.421898,32.750313 
z"/>
<path fill="#0B0B0B" opacity="1.000000" stroke="none" 
	d="
M72.718582,33.008453 
	C75.633560,36.365536 75.633560,36.365536 70.171379,41.244991 
	C68.550400,39.741528 66.894287,38.205482 64.825638,36.286804 
	C68.039154,35.924961 67.747383,29.718668 72.718582,33.008453 
z"/>
</svg>